<?xml version="1.0" encoding="UTF-8"?>
<svg width="227px" height="97px" viewBox="0 0 227 97" version="1.1" xmlns="http://www.w3.org/2000/svg" xmlns:xlink="http://www.w3.org/1999/xlink">
    <title>Group 5</title>
    <defs>
        <polygon id="path-1" points="0 0 9.04132272 0 9.04132272 35 0 35"></polygon>
        <polygon id="path-3" points="0 0 9.04132272 0 9.04132272 35 0 35"></polygon>
    </defs>
    <g id="Issie-Signs" stroke="none" stroke-width="1" fill="none" fill-rule="evenodd">
        <g id="My-IssieSign-Onboarding" transform="translate(-271.000000, -70.000000)">
            <g id="Group-5" transform="translate(271.321797, 70.344555)">
                <g id="Page-1" transform="translate(31.678203, 3.655445)">
                    <path d="M11.1468738,77.014441 C17.7145719,78.2329405 24.1434333,81.2113616 30.2547269,83.8247329 C36.6724734,86.5683577 43.3457628,88.1741159 50.1269259,89.7274527 C55.4818128,90.9537554 60.8601204,91.7156678 66.2120302,90.0009648 C67.2302318,89.6750312 68.208142,89.2679644 69.1495319,88.7928696 C70.1336942,88.2973665 71.0769696,87.7272327 71.9831294,87.0970744 C75.6277155,84.5642361 78.6704115,81.0658019 81.302552,77.5438581 C81.3148577,77.5272512 81.3274612,77.5108445 81.3395685,77.4946379 C81.3518742,77.4780311 81.3638822,77.4610241 81.3760887,77.4446174 C81.4137999,77.3945969 81.4508164,77.3444763 81.4881306,77.2943558 L80.7145554,78.3371833 C80.9498533,78.0199532 81.2314962,77.6456998 81.5401323,77.224227 C81.5496594,77.2106214 81.5595834,77.197216 81.5697058,77.1836104 C82.9501331,75.2968369 84.8567305,72.4879854 85.6410236,69.6118063 C85.7166445,69.3344926 85.7820436,69.0563786 85.8354346,68.7785647 C86.1560788,67.10818 85.957202,65.4209883 85.6726812,64.071235 C85.3717857,62.6432496 84.9751238,61.5928189 84.9954679,61.3380145 C84.4425031,58.4422273 83.1066345,55.7778351 81.6543575,53.2457971 C78.5777214,47.8811978 75.1351878,42.7318869 72.2523673,37.253441 C69.4404041,31.9090501 67.7022168,26.1023696 66.0571167,20.3101951 C64.5035157,14.8393523 63.2304659,11.8000064 60.5291553,6.75943998 C59.5797269,4.98861403 58.023645,2.79841616 55.7134388,3.15536249 C53.5016787,3.49720263 53.0627405,6.05395077 53.3426963,7.9062101 C54.1854417,13.4802952 56.6659436,15.9884234 58.0811049,21.4107463 C59.5035107,26.8621811 62.1031004,37.3929982 59.9379831,38.1011885 C57.7735604,38.8091788 48.0739496,22.0570112 42.001558,14.1417664 C39.3007435,10.6211231 37.3383733,4.96400394 33.914596,2.06681624 C32.5813077,0.937853423 30.7098412,-0.382487851 28.8626885,0.103611425 C26.0259154,0.85061766 25.6091077,4.28872711 26.8132849,6.54135058 C28.5372808,9.76437185 31.3325717,14.0693367 33.5825392,16.9135026 C35.98484,19.9496473 38.9424874,24.6045556 40.7706853,27.8530873 C42.5986846,31.1012189 49.4481248,38.468339 47.3487043,39.9378415 C45.2494822,41.407644 36.7362847,30.2868851 35.8298273,29.3716098 C32.2768396,25.7825385 28.7861746,22.1294409 25.50957,18.2807631 C22.8987662,15.2139059 16.4107578,3.35024238 11.0416795,7.603486 C7.71218014,10.2416675 12.6709013,16.4164989 14.3312845,18.612199 C18.3497074,23.9275781 22.3619774,29.3523019 26.7085868,34.3924681 C28.2223926,36.1474876 29.8292854,37.8177723 31.4267504,39.4946598 C32.0518627,40.1508288 36.8511053,46.6071756 35.5334969,48.157311 C34.2156899,49.7070464 28.4384379,43.9300781 25.8506577,42.166155 C21.8584341,39.4453396 18.0658812,36.39729 14.5170616,33.1118432 C11.8162471,30.6113181 9.34765406,26.9665239 6.09804281,25.1609837 C3.47175751,23.7014854 -0.537733819,25.0110222 0.0598889914,28.540169 C0.729460746,32.4909886 4.77835033,35.9231957 7.43946884,38.5846867 C12.7737139,43.9197739 18.8763737,48.3025706 24.4375804,53.3629451 C26.799689,55.5125263 42.2557115,70.8458122 31.7615859,70.8757245 C28.3547786,70.8855285 25.0172408,68.9561375 21.8340211,67.9331181 C17.6140418,66.5773623 13.0076224,65.6528834 8.74635937,67.364385 C6.25117001,68.3660956 2.88753209,70.6552341 2.43529577,73.6026424 C1.87568185,77.251038 9.05668261,76.6267821 11.1468738,77.014441 Z" id="Stroke-3" stroke="#00B9EF" stroke-width="2.7"></path>
                    <path d="M85.1468738,79.014441 C91.7145719,80.2329405 98.1434333,83.2113616 104.254727,85.8247329 C110.672473,88.5683577 117.345763,90.1741159 124.126926,91.7274527 C129.481813,92.9537554 134.86012,93.7156678 140.21203,92.0009648 C141.230232,91.6750312 142.208142,91.2679644 143.149532,90.7928696 C144.133694,90.2973665 145.07697,89.7272327 145.983129,89.0970744 C149.627715,86.5642361 152.670412,83.0658019 155.302552,79.5438581 C155.314858,79.5272512 155.327461,79.5108445 155.339568,79.4946379 C155.351874,79.4780311 155.363882,79.4610241 155.376089,79.4446174 C155.4138,79.3945969 155.450816,79.3444763 155.488131,79.2943558 L154.714555,80.3371833 C154.949853,80.0199532 155.231496,79.6456998 155.540132,79.224227 C155.549659,79.2106214 155.559583,79.197216 155.569706,79.1836104 C156.950133,77.2968369 158.856731,74.4879854 159.641024,71.6118063 C159.716644,71.3344926 159.782044,71.0563786 159.835435,70.7785647 C160.156079,69.10818 159.957202,67.4209883 159.672681,66.071235 C159.371786,64.6432496 158.975124,63.5928189 158.995468,63.3380145 C158.442503,60.4422273 157.106635,57.7778351 155.654357,55.2457971 C152.577721,49.8811978 149.135188,44.7318869 146.252367,39.253441 C143.440404,33.9090501 141.702217,28.1023696 140.057117,22.3101951 C138.503516,16.8393523 137.230466,13.8000064 134.529155,8.75943998 C133.579727,6.98861403 132.023645,4.79841616 129.713439,5.15536249 C127.501679,5.49720263 127.06274,8.05395077 127.342696,9.9062101 C128.185442,15.4802952 130.665944,17.9884234 132.081105,23.4107463 C133.503511,28.8621811 136.1031,39.3929982 133.937983,40.1011885 C131.77356,40.8091788 122.07395,24.0570112 116.001558,16.1417664 C113.300744,12.6211231 111.338373,6.96400394 107.914596,4.06681624 C106.581308,2.93785342 104.709841,1.61751215 102.862689,2.10361143 C100.025915,2.85061766 99.6091077,6.28872711 100.813285,8.54135058 C102.537281,11.7643719 105.332572,16.0693367 107.582539,18.9135026 C109.98484,21.9496473 112.942487,26.6045556 114.770685,29.8530873 C116.598685,33.1012189 123.448125,40.468339 121.348704,41.9378415 C119.249482,43.407644 110.736285,32.2868851 109.829827,31.3716098 C106.27684,27.7825385 102.786175,24.1294409 99.50957,20.2807631 C96.8987662,17.2139059 90.4107578,5.35024238 85.0416795,9.603486 C81.7121801,12.2416675 86.6709013,18.4164989 88.3312845,20.612199 C92.3497074,25.9275781 96.3619774,31.3523019 100.708587,36.3924681 C102.222393,38.1474876 103.829285,39.8177723 105.42675,41.4946598 C106.051863,42.1508288 110.851105,48.6071756 109.533497,50.157311 C108.21569,51.7070464 102.438438,45.9300781 99.8506577,44.166155 C95.8584341,41.4453396 92.0658812,38.39729 88.5170616,35.1118432 C85.8162471,32.6113181 83.3476541,28.9665239 80.0980428,27.1609837 C77.4717575,25.7014854 73.4622662,27.0110222 74.059889,30.540169 C74.7294607,34.4909886 78.7783503,37.9231957 81.4394688,40.5846867 C86.7737139,45.9197739 92.8763737,50.3025706 98.4375804,55.3629451 C100.799689,57.5125263 116.255711,72.8458122 105.761586,72.8757245 C102.354779,72.8855285 99.0172408,70.9561375 95.8340211,69.9331181 C91.6140418,68.5773623 87.0076224,67.6528834 82.7463594,69.364385 C80.25117,70.3660956 76.8875321,72.6552341 76.4352958,75.6026424 C75.8756818,79.251038 83.0566826,78.6267821 85.1468738,79.014441 Z" id="Stroke-3" stroke="#FAA919" stroke-width="4" fill="#FAA919" transform="translate(117.000000, 47.500000) rotate(90.000000) translate(-117.000000, -47.500000) "></path>
                </g>
                <g id="Group-7" transform="translate(15.303203, 18.938938) rotate(-150.000000) translate(-15.303203, -18.938938) translate(7.736216, 1.438938)">
                    <g id="Group-6" transform="translate(0.000000, 0.000000)">
                        <g id="Group-3" transform="translate(6.092652, 0.000000)">
                            <mask id="mask-2" fill="white">
                                <use xlink:href="#path-1"></use>
                            </mask>
                            <g id="Clip-2"></g>
                            <path d="M3.96590732,0.909157395 C3.29870411,-0.0467461155 1.97374574,-0.287295583 1.00685841,0.371619029 C0.0394402825,1.03063855 -0.204086237,2.33986548 0.462798505,3.29576899 C3.29127305,7.34996643 4.78629658,12.2398451 4.78629658,17.4370984 C4.78629658,22.6145244 3.2225888,27.677498 0.383710773,31.6931949 C-0.289224977,32.6449022 -0.0540849416,33.9558076 0.909193019,34.6207019 C1.28021533,34.8769872 1.70505977,35.000042 2.1258702,35.000042 C2.79710742,35.000042 3.45804731,34.6865828 3.87163899,34.1016269 C7.2536215,29.318123 9.04132272,23.5556362 9.04132272,17.4373082 C9.0411104,11.3837072 7.2859997,5.66853299 3.96590732,0.909157395" id="Fill-1" stroke="#FFFFFF" fill="#979797" mask="url(#mask-2)"></path>
                        </g>
                        <path d="M3.93228428,6.34916615 C3.2655057,5.39326264 1.94075965,5.15250336 0.973235368,5.81162778 C0.00581724379,6.4706473 -0.23749696,7.77987423 0.429387782,8.73577774 C2.07186482,11.0897636 2.94002518,13.9340801 2.94002518,16.9610379 C2.94002518,19.9766659 2.03205555,22.9216922 0.383739829,25.2534379 C-0.28919592,26.2051452 -0.0541620429,27.5159457 0.909222076,28.1809449 C1.28024439,28.4370204 1.70508882,28.5599703 2.12589925,28.5599703 C2.79724263,28.5599703 3.45807637,28.2467209 3.87166805,27.6614503 C6.04589065,24.5863406 7.19494517,20.8859912 7.19494517,16.9610379 C7.19494517,13.0777324 6.06680379,9.40833014 3.93228428,6.34916615" id="Fill-4" stroke="#FFFFFF" fill="#979797"></path>
                    </g>
                </g>
                <g id="Group-7" transform="translate(215.159999, 32.061793) rotate(-11.000000) translate(-215.159999, -32.061793) translate(207.650813, 14.561793)">
                    <g id="Group-6" transform="translate(0.000000, -0.000000)">
                        <g id="Group-3" transform="translate(5.977050, 0.000000)">
                            <mask id="mask-4" fill="white">
                                <use xlink:href="#path-3"></use>
                            </mask>
                            <g id="Clip-2"></g>
                            <path d="M3.96590732,0.909157395 C3.29870411,-0.0467461155 1.97374574,-0.287295583 1.00685841,0.371619029 C0.0394402825,1.03063855 -0.204086237,2.33986548 0.462798505,3.29576899 C3.29127305,7.34996643 4.78629658,12.2398451 4.78629658,17.4370984 C4.78629658,22.6145244 3.2225888,27.677498 0.383710773,31.6931949 C-0.289224977,32.6449022 -0.0540849416,33.9558076 0.909193019,34.6207019 C1.28021533,34.8769872 1.70505977,35.000042 2.1258702,35.000042 C2.79710742,35.000042 3.45804731,34.6865828 3.87163899,34.1016269 C7.2536215,29.318123 9.04132272,23.5556362 9.04132272,17.4373082 C9.0411104,11.3837072 7.2859997,5.66853299 3.96590732,0.909157395" id="Fill-1" stroke="#FFFFFF" fill="#979797" mask="url(#mask-4)"></path>
                        </g>
                        <path d="M3.93228428,7.03997514 C3.2655057,6.08407163 1.94075965,5.84331235 0.973235368,6.50243678 C0.00581724379,7.1614563 -0.23749696,8.47068323 0.429387782,9.42658674 C2.07186482,11.7805726 2.94002518,14.6248891 2.94002518,17.6518469 C2.94002518,20.6674749 2.03205555,23.6125012 0.383739829,25.9442469 C-0.28919592,26.8959542 -0.0541620429,28.2067547 0.909222076,28.8717539 C1.28024439,29.1278294 1.70508882,29.2507793 2.12589925,29.2507793 C2.79724263,29.2507793 3.45807637,28.9375299 3.87166805,28.3522593 C6.04589065,25.2771496 7.19494517,21.5768001 7.19494517,17.6518469 C7.19494517,13.7685413 6.06680379,10.0991391 3.93228428,7.03997514" id="Fill-4" stroke="#FFFFFF" fill="#979797"></path>
                    </g>
                </g>
            </g>
        </g>
    </g>
</svg>