<?xml version="1.0" encoding="utf-8"?>
<!-- Generator: Adobe Illustrator 27.5.0, SVG Export Plug-In . SVG Version: 6.00 Build 0)  -->
<svg version="1.1" id="Layer_1" xmlns="http://www.w3.org/2000/svg" xmlns:xlink="http://www.w3.org/1999/xlink" x="0px" y="0px"
	 viewBox="0 0 130.4 113.4" style="enable-background:new 0 0 130.4 113.4;" xml:space="preserve">
<style type="text/css">
	.st0{fill:none;stroke:#FFFFFF;stroke-width:1.3;}
	.st1{fill-rule:evenodd;clip-rule:evenodd;fill:#FFFFFF;stroke:#FFFFFF;stroke-width:2;}
</style>
<g id="Issie-Signs">
	<g id="My-IssieSign-Onboarding" transform="translate(-151.000000, -602.000000)">
		<g id="Page-1" transform="translate(152.000000, 603.000000)">
			<path id="Stroke-3" class="st0" d="M8.9,80.3c5.1,1,10.1,3.3,14.9,5.3c5,2.1,10.2,3.4,15.5,4.6c4.2,1,8.4,1.6,12.5,0.2
				c0.8-0.3,1.6-0.6,2.3-0.9c0.8-0.4,1.5-0.8,2.2-1.3c2.8-2,5.2-4.7,7.3-7.5c0,0,0,0,0,0c0,0,0,0,0,0c0,0,0.1-0.1,0.1-0.1l-0.6,0.8
				c0.2-0.2,0.4-0.5,0.6-0.9c0,0,0,0,0,0c1.1-1.5,2.6-3.7,3.2-5.9c0.1-0.2,0.1-0.4,0.2-0.7c0.2-1.3,0.1-2.6-0.1-3.7
				c-0.2-1.1-0.5-1.9-0.5-2.1c-0.4-2.3-1.5-4.3-2.6-6.3c-2.4-4.2-5.1-8.2-7.3-12.5c-2.2-4.2-3.5-8.7-4.8-13.2
				c-1.2-4.3-2.2-6.6-4.3-10.6c-0.7-1.4-2-3.1-3.8-2.8c-1.7,0.3-2.1,2.3-1.8,3.7c0.7,4.3,2.6,6.3,3.7,10.5c1.1,4.3,3.1,12.5,1.4,13
				c-1.7,0.6-9.2-12.5-14-18.7c-2.1-2.7-3.6-7.2-6.3-9.4c-1-0.9-2.5-1.9-3.9-1.5c-2.2,0.6-2.5,3.3-1.6,5c1.3,2.5,3.5,5.9,5.3,8.1
				c1.9,2.4,4.2,6,5.6,8.5c1.4,2.5,6.8,8.3,5.1,9.4c-1.6,1.1-8.3-7.5-9-8.2c-2.8-2.8-5.5-5.7-8-8.7c-2-2.4-7.1-11.6-11.3-8.3
				c-2.6,2.1,1.3,6.9,2.6,8.6c3.1,4.1,6.3,8.4,9.6,12.3c1.2,1.4,2.4,2.7,3.7,4c0.5,0.5,4.2,5.5,3.2,6.8c-1,1.2-5.5-3.3-7.5-4.7
				c-3.1-2.1-6.1-4.5-8.8-7.1c-2.1-2-4-4.8-6.6-6.2c-2-1.1-5.2-0.1-4.7,2.6c0.5,3.1,3.7,5.8,5.7,7.8c4.2,4.2,8.9,7.6,13.2,11.5
				c1.8,1.7,13.9,13.6,5.7,13.7c-2.7,0-5.3-1.5-7.7-2.3c-3.3-1.1-6.9-1.8-10.2-0.4c-1.9,0.8-4.6,2.6-4.9,4.9
				C1.7,80.5,7.3,80,8.9,80.3z"/>
			<path id="Stroke-3_00000008860746105066851440000000588739439407429811_" class="st1" d="M67.1,32.9c-1,5.1-3.3,10.1-5.3,14.9
				c-2.1,5-3.4,10.2-4.6,15.5c-1,4.2-1.6,8.4-0.2,12.5c0.3,0.8,0.6,1.6,0.9,2.3c0.4,0.8,0.8,1.5,1.3,2.2c2,2.8,4.7,5.2,7.5,7.3
				c0,0,0,0,0,0c0,0,0,0,0,0c0,0,0.1,0.1,0.1,0.1l-0.8-0.6c0.2,0.2,0.5,0.4,0.9,0.6c0,0,0,0,0,0c1.5,1.1,3.7,2.6,5.9,3.2
				c0.2,0.1,0.4,0.1,0.7,0.2c1.3,0.2,2.6,0.1,3.7-0.1c1.1-0.2,1.9-0.5,2.1-0.5c2.3-0.4,4.3-1.5,6.3-2.6c4.2-2.4,8.2-5.1,12.5-7.3
				c4.2-2.2,8.7-3.5,13.2-4.8c4.3-1.2,6.6-2.2,10.6-4.3c1.4-0.7,3.1-2,2.8-3.8c-0.3-1.7-2.3-2.1-3.7-1.8c-4.3,0.7-6.3,2.6-10.5,3.7
				c-4.3,1.1-12.5,3.1-13,1.4c-0.6-1.7,12.5-9.2,18.7-14c2.7-2.1,7.2-3.6,9.4-6.3c0.9-1,1.9-2.5,1.5-3.9c-0.6-2.2-3.3-2.5-5-1.6
				c-2.5,1.3-5.9,3.5-8.1,5.3c-2.4,1.9-6,4.2-8.5,5.6c-2.5,1.4-8.3,6.8-9.4,5.1c-1.1-1.6,7.5-8.3,8.2-9c2.8-2.8,5.7-5.5,8.7-8
				c2.4-2,11.6-7.1,8.3-11.3c-2.1-2.6-6.9,1.3-8.6,2.6c-4.1,3.1-8.4,6.3-12.3,9.6c-1.4,1.2-2.7,2.4-4,3.7c-0.5,0.5-5.5,4.2-6.8,3.2
				c-1.2-1,3.3-5.5,4.7-7.5c2.1-3.1,4.5-6.1,7.1-8.8c2-2.1,4.8-4,6.2-6.6c1.1-2,0.1-5.2-2.6-4.7c-3.1,0.5-5.8,3.7-7.8,5.7
				c-4.2,4.2-7.6,8.9-11.5,13.2c-1.7,1.8-13.6,13.9-13.7,5.7c0-2.7,1.5-5.3,2.3-7.7c1.1-3.3,1.8-6.9,0.4-10.2
				c-0.8-1.9-2.6-4.6-4.9-4.9C66.9,25.7,67.4,31.2,67.1,32.9z"/>
		</g>
	</g>
</g>
</svg>
