<?xml version="1.0" encoding="utf-8"?>
<!-- Generator: Adobe Illustrator 27.5.0, SVG Export Plug-In . SVG Version: 6.00 Build 0)  -->
<svg version="1.1" id="Layer_1" xmlns="http://www.w3.org/2000/svg" xmlns:xlink="http://www.w3.org/1999/xlink" x="0px" y="0px"
	 viewBox="0 0 130.4 113.4" style="enable-background:new 0 0 130.4 113.4;" xml:space="preserve">
<style type="text/css">
	.st0{fill:none;stroke:#FEFEFE;stroke-width:1.3;}
	.st1{fill-rule:evenodd;clip-rule:evenodd;fill:#FFFFFF;stroke:#FEFEFE;stroke-width:2;}
	.st2{filter:url(#Adobe_OpacityMaskFilter);}
	.st3{fill-rule:evenodd;clip-rule:evenodd;fill:#FFFFFF;}
	.st4{mask:url(#mask-2_00000109737362482792051040000001774437866025504910_);fill-rule:evenodd;clip-rule:evenodd;fill:#FFFFFF;}
	.st5{filter:url(#Adobe_OpacityMaskFilter_00000079456417277942108840000009784853738077409176_);}
	.st6{mask:url(#mask-2_00000106113265720324531710000012051165648504123264_);fill-rule:evenodd;clip-rule:evenodd;fill:#FFFFFF;}
	.st7{filter:url(#Adobe_OpacityMaskFilter_00000085215713528398942290000013195207881707104905_);}
	.st8{mask:url(#mask-2_00000083809230104746090810000004750249665075729045_);fill-rule:evenodd;clip-rule:evenodd;fill:#FFFFFF;}
</style>
<g id="Issie-Signs">
	<g id="My-IssieSign-Onboarding" transform="translate(-172.000000, -802.000000)">
		<g id="Group-4" transform="translate(173.000000, 802.000000)">
			<g id="Page-1" transform="translate(0.000000, 53.000000)">
				<path id="Stroke-3" class="st0" d="M21.4,48.7c4,0.7,7.9,2.5,11.6,4.1c3.9,1.7,7.9,2.6,12,3.6c3.2,0.7,6.5,1.2,9.7,0.2
					c0.6-0.2,1.2-0.4,1.8-0.7c0.6-0.3,1.2-0.6,1.7-1c2.2-1.5,4-3.6,5.6-5.8c0,0,0,0,0,0c0,0,0,0,0,0c0,0,0-0.1,0.1-0.1l-0.5,0.6
					c0.1-0.2,0.3-0.4,0.5-0.7c0,0,0,0,0,0c0.8-1.1,2-2.8,2.5-4.6c0-0.2,0.1-0.3,0.1-0.5c0.2-1,0.1-2-0.1-2.8
					c-0.2-0.9-0.4-1.5-0.4-1.7c-0.3-1.8-1.1-3.4-2-4.9c-1.9-3.2-3.9-6.4-5.7-9.7c-1.7-3.2-2.8-6.7-3.7-10.2
					c-0.9-3.3-1.7-5.1-3.3-8.2c-0.6-1.1-1.5-2.4-2.9-2.2C47,4.3,46.8,5.9,47,7c0.5,3.4,2,4.9,2.9,8.2c0.9,3.3,2.4,9.7,1.1,10.1
					c-1.3,0.4-7.2-9.7-10.8-14.5c-1.6-2.1-2.8-5.5-4.9-7.3c-0.8-0.7-1.9-1.5-3.1-1.2c-1.7,0.5-2,2.5-1.2,3.9c1,1.9,2.7,4.5,4.1,6.3
					c1.5,1.8,3.2,4.6,4.3,6.6c1.1,2,5.2,6.4,4,7.3c-1.3,0.9-6.4-5.8-7-6.4c-2.1-2.2-4.3-4.4-6.2-6.7c-1.6-1.9-5.5-9-8.7-6.5
					c-2,1.6,1,5.3,2,6.7c2.4,3.2,4.9,6.5,7.5,9.5c0.9,1.1,1.9,2.1,2.9,3.1c0.4,0.4,3.3,4.3,2.5,5.2c-0.8,0.9-4.3-2.6-5.9-3.6
					c-2.4-1.6-4.7-3.5-6.9-5.5c-1.6-1.5-3.1-3.7-5.1-4.8c-1.6-0.9-4-0.1-3.7,2c0.4,2.4,2.9,4.5,4.5,6.1c3.2,3.2,6.9,5.9,10.3,8.9
					C30.9,35.7,40.2,45,33.9,45c-2.1,0-4.1-1.2-6-1.8c-2.6-0.8-5.3-1.4-7.9-0.3c-1.5,0.6-3.5,2-3.8,3.8
					C15.8,48.9,20.2,48.5,21.4,48.7z"/>
				<path id="Stroke-3_00000035518206242861034000000002093376921152559787_" class="st1" d="M66.6,11.4c-0.7,4-2.5,7.9-4.1,11.6
					c-1.7,3.9-2.6,7.9-3.6,12c-0.7,3.2-1.2,6.5-0.2,9.7c0.2,0.6,0.4,1.2,0.7,1.8c0.3,0.6,0.6,1.2,1,1.7c1.5,2.2,3.6,4,5.8,5.6
					c0,0,0,0,0,0c0,0,0,0,0,0c0,0,0.1,0,0.1,0.1l-0.6-0.5c0.2,0.1,0.4,0.3,0.7,0.5c0,0,0,0,0,0c1.1,0.8,2.8,2,4.6,2.5
					c0.2,0,0.3,0.1,0.5,0.1c1,0.2,2,0.1,2.8-0.1c0.9-0.2,1.5-0.4,1.7-0.4c1.8-0.3,3.4-1.1,4.9-2c3.2-1.9,6.4-3.9,9.7-5.7
					c3.2-1.7,6.7-2.8,10.2-3.7c3.3-0.9,5.1-1.7,8.2-3.3c1.1-0.6,2.4-1.5,2.2-2.9c-0.2-1.3-1.8-1.6-2.9-1.4c-3.4,0.5-4.9,2-8.2,2.9
					c-3.3,0.9-9.7,2.4-10.1,1.1c-0.4-1.3,9.7-7.2,14.5-10.8c2.1-1.6,5.5-2.8,7.3-4.9c0.7-0.8,1.5-1.9,1.2-3.1
					c-0.5-1.7-2.5-2-3.9-1.2c-1.9,1-4.5,2.7-6.3,4.1c-1.8,1.5-4.6,3.2-6.6,4.3c-2,1.1-6.4,5.2-7.3,4c-0.9-1.3,5.8-6.4,6.4-7
					c2.2-2.1,4.4-4.3,6.7-6.2c1.9-1.6,9-5.5,6.5-8.7c-1.6-2-5.3,1-6.7,2c-3.2,2.4-6.5,4.9-9.5,7.5c-1.1,0.9-2.1,1.9-3.1,2.9
					c-0.4,0.4-4.3,3.3-5.2,2.5c-0.9-0.8,2.6-4.3,3.6-5.9c1.6-2.4,3.5-4.7,5.5-6.9c1.5-1.6,3.7-3.1,4.8-5.1c0.9-1.6,0.1-4-2-3.7
					c-2.4,0.4-4.5,2.9-6.1,4.5c-3.2,3.2-5.9,6.9-8.9,10.3c-1.3,1.4-10.6,10.8-10.6,4.4c0-2.1,1.2-4.1,1.8-6c0.8-2.6,1.4-5.3,0.3-7.9
					c-0.6-1.5-2-3.5-3.8-3.8C66.5,5.8,66.9,10.2,66.6,11.4z"/>
			</g>
			<g id="Group" transform="translate(26.274421, 0.000000)">
				<g id="Group-2" transform="translate(-0.274421, 0.000000)">
					<g id="Clip-2">
					</g>
					<defs>
						<filter id="Adobe_OpacityMaskFilter" filterUnits="userSpaceOnUse" x="14.7" y="2.2" width="46" height="46">
							<feColorMatrix  type="matrix" values="1 0 0 0 0  0 1 0 0 0  0 0 1 0 0  0 0 0 1 0"/>
						</filter>
					</defs>
					
						<mask maskUnits="userSpaceOnUse" x="14.7" y="2.2" width="46" height="46" id="mask-2_00000109737362482792051040000001774437866025504910_">
						<g class="st2">
							<polygon id="path-1_00000026882464047948756540000009319252639627607957_" class="st3" points="14.7,2.2 60.7,2.2 60.7,48.2 
								14.7,48.2 							"/>
						</g>
					</mask>
					<path id="Fill-1" class="st4" d="M53.2,40.7c-4.1,4.1-9.6,6.4-15.5,6.4c-5.8,0-11.3-2.3-15.5-6.4c-4.1-4.1-6.4-9.6-6.4-15.5
						s2.3-11.3,6.4-15.5c0.1-0.1,0.2-0.2,0.3-0.3c-0.1,0.2-0.2,0.5-0.3,0.7c-0.3,0.5-0.9,0.7-1.2,1.1c-0.3,0.4-0.6,1-0.7,1.5
						c-0.1,0.5,0,1.1-0.2,1.6c-0.2,0.6-0.6,1-0.6,1.8c0.9,0.3,0.5-1.3,1.3-1.4c0.2,0.6,0.1,1.7,0,2.3c-0.1,0.9-0.3,1.1,0.3,1.9
						c0.4,0.6,0.6,1,1.4,1.1c0.7,0.1,1,0.4,1.4,1.1c0.6,0.1,0.9,0.2,1,0.9c0.2,0.1,0.7,0.6,1,0.7c0.4,0.1,1-0.4,1.4,0
						c0.6,0.7-0.8,2.5-1,3.1c-0.4,0.9-0.4,2.3,0.5,2.9c0.4,0.3,0.9,0.5,1.1,1.1c0.1,0.6,0,1,0.3,1.6c0.4,0.8,1.3,1.1,1.9,1.8
						c0.8,0.8,0.8,1.9,0.8,3.1c0,1.2,0.5,2.2,0.6,3.3c0.2,1.2,0.5,2.3,0.8,3.4c0.2,0.9,0.9,2.1,2,2c0.1-0.4-0.3-0.7-0.4-1.1
						c0-0.4,0.1-0.7,0-1.1c-0.1-0.8-0.1-1.2,0.4-1.9c0.2-0.2,0.4-0.4,0.6-0.7c0.4-0.5,0.1-0.3,0.1-0.8c0-0.6,0.2-0.3,0.6-0.5
						c0.2-0.1,0.4-0.4,0.6-0.6c0.3-0.3,0.8-0.8,1.1-1.2c0.3-0.5,0.3-1.1,0.5-1.6c0.3-0.5,0.8-0.5,1.3-0.9c0.6-0.5,0.4-0.9,0.5-1.6
						c0.2-1.1,0.7-2.2,1.3-3.1c0.8-1.1,1.2-2,0.2-3c-0.5-0.5-0.8-0.4-1.4-0.5c-0.5-0.1-1-0.5-1.5-0.6c-0.3,0-0.5,0.1-0.8,0
						c-0.3-0.1-0.2-0.2-0.5-0.2c-0.4,0-1,0.9-1.4,0.3c-0.2-0.3,0.4-1.2,0.4-1.6c0-0.5-0.2-1.3-0.7-1.6c-0.2-0.1-0.6-0.1-0.8-0.2
						c-0.3-0.1-0.5-0.3-0.8-0.4c-0.3-0.2-0.9-0.6-1.1-0.9c-0.4,0-0.7-0.2-1.1-0.2c-0.4,0-0.6,0.2-1,0.1c-0.3,0-0.7-0.3-1.1-0.3
						c-0.2,0-0.6,0.3-0.8,0.5c-0.6,0.3-1.1,0.5-1.8,0.7c-0.9,0.2-1.1-0.2-1.1-1.1l-0.1-0.3c0.4-1-0.3-1-1-1.3
						c-0.1-0.7,0.8-1.2,0.4-2c-0.7,0-1.5,2-2.1,1.1c-0.4-0.6,0.2-2.2,0.6-2.7c0.4-0.5,1.7-1.4,2.3-1.5c0.5-0.1,0.9,0.2,1.1,0.6
						c0.2,0.5-0.1,0.9,0,1.4c0.6-0.1,0.5-0.9,0.4-1.3c0-0.7,0.3-0.6,0.7-1.1c0.3-0.5,0.4-1,0.8-1.4c0.3-0.3,0.7-0.7,1-1
						c0.4-0.4,0.8-0.3,1.2-0.6c0.6-0.4-0.2-1.2,0.7-1.1c0.3,0,0.2,0.2,0.6,0.1c0.2,0,0.5-0.2,0.7-0.3c0.9-0.4,0.3-0.4-0.1-0.9
						C32,8,32.7,8.1,33.2,8c0.4-0.1,0.3-0.2,0.6,0c0.3,0.2,0.1,0.5,0.6,0.4c0.8,0,0.3-0.8,0.1-1.1c-0.3-0.5-0.4-0.8-1.1-0.8
						c0.1-0.2,0.1-0.5,0-0.7c-0.6,0.1-0.7-0.3-1.1-0.5c-0.7-0.3-0.6,0.3-0.9,0.7c-0.3,0.4-0.9,0.3-1.1,0.8c-0.2,0.5,0,0.9-0.8,0.8
						c0.1-0.3,0.1-0.7,0.1-1c-0.2,0-0.5-0.1-0.7-0.2c0-0.8,0.9-0.9,1.5-1c0.7-0.1,0.9-0.8,1.6-0.9c0.6-0.1,1,0.8,1.7,0.3
						c0.4-0.3,0.2-0.5,0.1-0.8c0-0.1-0.2-0.3-0.3-0.3c0,0,0,0,0,0c0.6-0.1,1.1-0.2,1.7-0.3c0.1,0.3,0.3,0.7,0.5,0.9
						c0.1,0.2,0.3,0.3,0.3,0.4c0.1,0.2-0.1,0.4,0.1,0.6c0.4,0.2,1.5-1.1,1.8-1.4c0.3-0.3,0.6-0.4,0.5-0.7c1.8,0.1,3.6,0.3,5.3,0.8
						c0.1,0.2,0.3,0.3,0.4,0.5c0.3,0.4,0.5,0.8,1,1c0.3,0.1,1.3,0.1,0.9,0.8c-0.4,0.7-0.8-0.2-1-0.4c-0.3-0.3-1.1-0.6-1,0.1
						c0,1,2.2,0.8,1.8,1.9c0.3,0.2,0.8,0.4,0.7,0.8c-0.1,0.5-0.7,0.2-0.7,0.8c0,0.9,1,1.6,1.8,1.3c0.9-0.3,0.2-1.6,1.3-1.8
						c0.4-0.1,0.7,0.1,1,0.4c0.3,0.2,0.5,0.8,0.9,0.8c0-0.3-0.2-0.4-0.2-0.7c0.3,0.1,1,0.5,1.2,0.8c0.3,0.4,0.3,1.1,0.9,0.5
						c-0.1-0.1-0.2-0.3-0.2-0.3c0.9,0,1.5,0.4,1.9,1.1c0.9,1.7-1.2,0.4-1.3,1.3c-0.5-0.2-0.7-0.6-1.2-0.8c-0.2-0.1-0.6-0.1-0.8-0.2
						c-0.2-0.2-0.2-0.5-0.4-0.6c-0.8-0.6-2.5,0.4-3.2,0.8c-0.2,0.1-0.4,0.1-0.5,0.3c-0.2,0.4,0.1,0.4,0,0.8
						c-0.1,0.5-0.7,0.7-0.9,1.1c-0.5,0.9,0.5,2.2,0.3,3.2c-0.1,0.6-0.7,1.2-0.4,1.6c0.1,0.2,0.5,0.4,0.6,0.6
						c0.1,0.2,0.2,0.5,0.3,0.7c0.5,0.7,1.3,1.5,1.9,2.2c0.3,0.4,0.8,0.5,1.3,0.4c0.4-0.1,1.1-0.2,1.5-0.4c0.5-0.3,0.6-0.6,1.2-0.4
						c0.4,0.2,0.8,0.8,1.4,0.3c0.4,0.4,0,1.2-0.1,1.6c-0.1,0.6,0.1,1.1,0.5,1.6c0.4,0.6,0.5,0.7,0.5,1.5c-0.1,0.6-0.2,1.2-0.4,1.9
						c-0.1,0.6-0.5,1.1-0.5,1.7c0,0.6,0.3,1.1,0.2,1.7c-0.1,0.6-0.1,1.2-0.2,1.8c-0.1,0.6-0.5,1.1-0.7,1.6c-0.2,0.5-0.1,1.3,0.3,1.7
						c0.4,0.5,0.8,0.2,1.3-0.2c0.9-0.7,1.3-1.9,1.9-2.8c0.6-1,1.3-1.8,1.7-2.8c0.1-0.2,0.2-0.4,0.3-0.6C57.7,34.8,55.8,38,53.2,40.7
						 M14.7,25.2c0,12.7,10.3,23,23,23c12.7,0,23-10.3,23-23c0-12.7-10.3-23-23-23C25,2.2,14.7,12.5,14.7,25.2z"/>
					<defs>
						
							<filter id="Adobe_OpacityMaskFilter_00000153674776950955444220000018343142004114418356_" filterUnits="userSpaceOnUse" x="19.2" y="9.5" width="3.6" height="6.7">
							<feColorMatrix  type="matrix" values="1 0 0 0 0  0 1 0 0 0  0 0 1 0 0  0 0 0 1 0"/>
						</filter>
					</defs>
					
						<mask maskUnits="userSpaceOnUse" x="19.2" y="9.5" width="3.6" height="6.7" id="mask-2_00000106113265720324531710000012051165648504123264_">
						<g style="filter:url(#Adobe_OpacityMaskFilter_00000153674776950955444220000018343142004114418356_);">
							<polygon id="path-1_00000093170553170472755390000010457198439783928486_" class="st3" points="14.7,2.2 60.7,2.2 60.7,48.2 
								14.7,48.2 							"/>
						</g>
					</mask>
					<path id="Rectangle" class="st6" d="M19.5,16.1c-0.4-1.4-0.5-2.6-0.1-3.5c0.3-0.8,1.1-1.8,2.3-2.9c0.3-0.3,0.8-0.3,1.1-0.1l0,0
						l0,0"/>
					<defs>
						
							<filter id="Adobe_OpacityMaskFilter_00000148640332123877553720000014383556526620688277_" filterUnits="userSpaceOnUse" x="54.3" y="30.5" width="5.3" height="7.4">
							<feColorMatrix  type="matrix" values="1 0 0 0 0  0 1 0 0 0  0 0 1 0 0  0 0 0 1 0"/>
						</filter>
					</defs>
					
						<mask maskUnits="userSpaceOnUse" x="54.3" y="30.5" width="5.3" height="7.4" id="mask-2_00000083809230104746090810000004750249665075729045_">
						<g style="filter:url(#Adobe_OpacityMaskFilter_00000148640332123877553720000014383556526620688277_);">
							<polygon id="path-1_00000074407560024982083200000009086242750849952179_" class="st3" points="14.7,2.2 60.7,2.2 60.7,48.2 
								14.7,48.2 							"/>
						</g>
					</mask>
					<path id="Rectangle_00000124863283965776626580000003918683151360527265_" class="st8" d="M55.2,30.6l4.3-0.1l-1.2,3
						c-0.8,1.9-2.2,3.4-4,4.3l0,0l0,0"/>
				</g>
			</g>
		</g>
	</g>
</g>
</svg>
