<?xml version="1.0" encoding="UTF-8" standalone="no"?>
<svg viewBox="0 0 24 24" >
    <circle cx="6.5" cy="11.5" r="1.5" id="circle66" />
    <circle cx="9.5" cy="7.5" r="1.5" id="circle68" />
    <circle cx="14.5" cy="7.5" r="1.5" id="circle70" />
    <circle cx="17.5" cy="11.5" r="1.5" id="circle72" />
    <path style=";fill-opacity:0;fill-rule:evenodd;stroke-width:1.5;stroke-dasharray:none" d="M 11.956204,21.416059 C 8.4979829,21.468699 4.7257916,18.95645 3.1970803,15.854015 1.8236554,13.066725 2.2342055,9.1057359 4.0291971,6.5693431 5.9575855,3.8444555 9.8048966,2.2368802 13.138686,2.4087591 c 2.790456,0.1438665 5.513407,2.0405935 7.226278,4.2481752 1.164114,1.5003328 1.984835,3.6198537 1.576642,5.4744527 -0.402655,1.829439 -1.450495,3.609665 -3.240876,4.160584 -3.256921,1.002187 -3.683487,-0.297085 -4.90511,0.569343 -0.276965,0.196436 -0.445687,0.580243 -0.437956,0.919708 0.01695,0.744333 1.229748,1.24803 1.051095,1.970803 -0.237068,0.959102 -1.464703,1.649197 -2.452555,1.664234 z" />
</svg>
