<svg class="svg-icon" viewBox="0 0 24 24" stroke="white"
    xmlns="http://www.w3.org/2000/svg">
    <path d="M 21,7 H 16 C 16,4.79 14.21,2 12,2 9.79,2 8,4.79 8,7 H 3 C 1.9,7 2,6.9 2,8 v 13 c 0,1.1 -0.1,1 1,1 h 18 c 1.1,0 1,0.1 1,-1 V 8 C 22,6.9 22.1,7 21,7 Z M 12,3 c 2.292126,0.027041 3,2.9 3,4 H 9 C 9,5.9 9.6773073,2.9725982 12,3 Z m 9,18 H 3 V 8 h 5 v 2 C 8,10.55 7.95,11 8.5,11 9.05,11 9,10.55 9,10 V 8 h 6 v 2 c 0,0.55 -0.05,1 0.5,1 0.55,0 0.5,-0.45 0.5,-1 V 8 h 5 z" 
    style="fill:white;fill-opacity:1;stroke-width:0"
    transform="translate(0,-2)"/>
    <path d="m 13.993812,17.41074 c -0.274277,0 -0.519684,0.107115 -0.707348,0.274926 l -2.573161,-1.481742 c 0.01804,-0.08212 0.03248,-0.16424 0.03248,-0.249932 0,-0.08569 -0.01444,-0.167812 -0.03248,-0.249932 l 2.544289,-1.467461 c 0.194882,0.178524 0.451116,0.289209 0.73622,0.289209 0.599081,0 1.082677,-0.478442 1.082677,-1.071139 0,-0.592697 -0.483596,-1.071138 -1.082677,-1.071138 -0.59908,0 -1.082675,0.478441 -1.082675,1.071138 0,0.08569 0.01444,0.167812 0.03249,0.249932 l -2.544293,1.467459 c -0.194883,-0.178522 -0.4511163,-0.289207 -0.736221,-0.289207 -0.5990809,0 -1.0826763,0.478442 -1.0826763,1.071139 0,0.592697 0.4835954,1.071138 1.0826763,1.071138 0.2851047,0 0.541338,-0.110684 0.736219,-0.289207 l 2.569551,1.485312 c -0.01804,0.07498 -0.02887,0.15353 -0.02887,0.23208 0,0.574844 0.472768,1.042576 1.053804,1.042576 0.581036,0 1.053805,-0.467732 1.053805,-1.042576 0,-0.574844 -0.472769,-1.042575 -1.053805,-1.042575 z"
     style="fill:white;fill-opacity:1;stroke-width:0" 
     transform="translate(0,-2)"/>
</svg>
